<mxfile host="app.diagrams.net" agent="Mozilla/5.0 (Windows NT 10.0; Win64; x64) AppleWebKit/537.36 (KHTML, like Gecko) Chrome/134.0.0.0 Safari/537.36 Edg/134.0.0.0" version="26.1.3">
  <diagram name="PÃ¡gina-1" id="7CjSsinVh62mDkp5SS_G">
    <mxGraphModel dx="1434" dy="784" grid="1" gridSize="10" guides="1" tooltips="1" connect="1" arrows="1" fold="1" page="1" pageScale="1" pageWidth="827" pageHeight="1169" math="0" shadow="0">
      <root>
        <mxCell id="0" />
        <mxCell id="1" parent="0" />
        <mxCell id="ewjaxfbzA_KdV_oL-1Mk-13" value="" style="rounded=0;whiteSpace=wrap;html=1;" vertex="1" parent="1">
          <mxGeometry x="20" y="200" width="590" height="360" as="geometry" />
        </mxCell>
        <mxCell id="ewjaxfbzA_KdV_oL-1Mk-1" value="" style="outlineConnect=0;dashed=0;verticalLabelPosition=bottom;verticalAlign=top;align=center;html=1;shape=mxgraph.aws3.management_console;fillColor=#D2D3D3;gradientColor=none;" vertex="1" parent="1">
          <mxGeometry x="40" y="80" width="80" height="80" as="geometry" />
        </mxCell>
        <mxCell id="ewjaxfbzA_KdV_oL-1Mk-2" value="" style="points=[];aspect=fixed;html=1;align=center;shadow=0;dashed=0;fillColor=#FF6A00;strokeColor=none;shape=mxgraph.alibaba_cloud.apigateway;" vertex="1" parent="1">
          <mxGeometry x="38.56" y="240" width="82.88" height="80" as="geometry" />
        </mxCell>
        <mxCell id="ewjaxfbzA_KdV_oL-1Mk-4" value="" style="outlineConnect=0;dashed=0;verticalLabelPosition=bottom;verticalAlign=top;align=center;html=1;shape=mxgraph.aws3.lambda;fillColor=#F58534;gradientColor=none;" vertex="1" parent="1">
          <mxGeometry x="279.69" y="233.5" width="76.5" height="93" as="geometry" />
        </mxCell>
        <mxCell id="ewjaxfbzA_KdV_oL-1Mk-5" style="edgeStyle=orthogonalEdgeStyle;rounded=0;orthogonalLoop=1;jettySize=auto;html=1;exitX=0.5;exitY=1;exitDx=0;exitDy=0;exitPerimeter=0;entryX=0.5;entryY=0;entryDx=0;entryDy=0;entryPerimeter=0;" edge="1" parent="1" source="ewjaxfbzA_KdV_oL-1Mk-1" target="ewjaxfbzA_KdV_oL-1Mk-2">
          <mxGeometry relative="1" as="geometry" />
        </mxCell>
        <mxCell id="ewjaxfbzA_KdV_oL-1Mk-6" value="" style="outlineConnect=0;dashed=0;verticalLabelPosition=bottom;verticalAlign=top;align=center;html=1;shape=mxgraph.aws3.s3;fillColor=#E05243;gradientColor=none;" vertex="1" parent="1">
          <mxGeometry x="279.69" y="380" width="76.5" height="93" as="geometry" />
        </mxCell>
        <mxCell id="ewjaxfbzA_KdV_oL-1Mk-7" style="edgeStyle=orthogonalEdgeStyle;rounded=0;orthogonalLoop=1;jettySize=auto;html=1;entryX=0;entryY=0.5;entryDx=0;entryDy=0;entryPerimeter=0;" edge="1" parent="1" source="ewjaxfbzA_KdV_oL-1Mk-2" target="ewjaxfbzA_KdV_oL-1Mk-4">
          <mxGeometry relative="1" as="geometry" />
        </mxCell>
        <mxCell id="ewjaxfbzA_KdV_oL-1Mk-8" style="edgeStyle=orthogonalEdgeStyle;rounded=0;orthogonalLoop=1;jettySize=auto;html=1;exitX=0.5;exitY=1;exitDx=0;exitDy=0;exitPerimeter=0;entryX=0.5;entryY=0;entryDx=0;entryDy=0;entryPerimeter=0;" edge="1" parent="1" source="ewjaxfbzA_KdV_oL-1Mk-4" target="ewjaxfbzA_KdV_oL-1Mk-6">
          <mxGeometry relative="1" as="geometry" />
        </mxCell>
        <mxCell id="ewjaxfbzA_KdV_oL-1Mk-9" value="CLIENTE HTTP" style="text;html=1;align=center;verticalAlign=middle;whiteSpace=wrap;rounded=0;" vertex="1" parent="1">
          <mxGeometry x="50" y="40" width="60" height="30" as="geometry" />
        </mxCell>
        <mxCell id="ewjaxfbzA_KdV_oL-1Mk-10" value="API GATEWAY&lt;div&gt;&lt;br&gt;&lt;/div&gt;" style="text;html=1;align=center;verticalAlign=middle;whiteSpace=wrap;rounded=0;" vertex="1" parent="1">
          <mxGeometry x="50" y="330" width="60" height="30" as="geometry" />
        </mxCell>
        <mxCell id="ewjaxfbzA_KdV_oL-1Mk-11" value="LAMBDA FUNCIONES (ej:&amp;nbsp;&lt;span style=&quot;background-color: transparent; color: light-dark(rgb(0, 0, 0), rgb(255, 255, 255));&quot;&gt;get /user)&lt;/span&gt;" style="text;html=1;align=center;verticalAlign=middle;whiteSpace=wrap;rounded=0;" vertex="1" parent="1">
          <mxGeometry x="370" y="265" width="160" height="30" as="geometry" />
        </mxCell>
        <mxCell id="ewjaxfbzA_KdV_oL-1Mk-12" value="S3 / DYNAMODB" style="text;html=1;align=center;verticalAlign=middle;whiteSpace=wrap;rounded=0;" vertex="1" parent="1">
          <mxGeometry x="270" y="480" width="110" height="30" as="geometry" />
        </mxCell>
        <mxCell id="ewjaxfbzA_KdV_oL-1Mk-14" value="ARQUITECTURA TIPICA" style="text;html=1;align=center;verticalAlign=middle;whiteSpace=wrap;rounded=0;" vertex="1" parent="1">
          <mxGeometry x="460" y="560" width="150" height="30" as="geometry" />
        </mxCell>
      </root>
    </mxGraphModel>
  </diagram>
</mxfile>
